<mxfile host="app.diagrams.net" modified="2021-12-26T00:35:02.557Z" agent="5.0 (Windows NT 10.0; Win64; x64) AppleWebKit/537.36 (KHTML, like Gecko) Chrome/94.0.4606.85 YaBrowser/21.11.4.727 Yowser/2.5 Safari/537.36" etag="VrMKRPrUaUu1KXUzBG_2" version="16.1.0" type="github">
  <diagram id="C5RBs43oDa-KdzZeNtuy" name="Page-1">
    <mxGraphModel dx="1278" dy="567" grid="1" gridSize="10" guides="1" tooltips="1" connect="1" arrows="1" fold="1" page="1" pageScale="1" pageWidth="827" pageHeight="1169" math="0" shadow="0">
      <root>
        <mxCell id="WIyWlLk6GJQsqaUBKTNV-0" />
        <mxCell id="WIyWlLk6GJQsqaUBKTNV-1" parent="WIyWlLk6GJQsqaUBKTNV-0" />
        <mxCell id="DX_jDA4ijIOc0aVRlDkm-0" style="edgeStyle=orthogonalEdgeStyle;rounded=0;orthogonalLoop=1;jettySize=auto;html=1;exitX=0.5;exitY=1;exitDx=0;exitDy=0;entryX=0.5;entryY=0;entryDx=0;entryDy=0;" edge="1" parent="WIyWlLk6GJQsqaUBKTNV-1" source="DX_jDA4ijIOc0aVRlDkm-1" target="DX_jDA4ijIOc0aVRlDkm-5">
          <mxGeometry relative="1" as="geometry" />
        </mxCell>
        <mxCell id="DX_jDA4ijIOc0aVRlDkm-1" value="" style="ellipse;shape=doubleEllipse;whiteSpace=wrap;html=1;aspect=fixed;fillColor=#330000;fontColor=#ffffff;strokeColor=#B20000;" vertex="1" parent="WIyWlLk6GJQsqaUBKTNV-1">
          <mxGeometry x="190" y="70" width="20" height="20" as="geometry" />
        </mxCell>
        <mxCell id="DX_jDA4ijIOc0aVRlDkm-2" style="edgeStyle=orthogonalEdgeStyle;rounded=0;orthogonalLoop=1;jettySize=auto;html=1;exitX=0.5;exitY=1;exitDx=0;exitDy=0;entryX=0.5;entryY=0;entryDx=0;entryDy=0;" edge="1" parent="WIyWlLk6GJQsqaUBKTNV-1" source="DX_jDA4ijIOc0aVRlDkm-3" target="DX_jDA4ijIOc0aVRlDkm-17">
          <mxGeometry relative="1" as="geometry" />
        </mxCell>
        <mxCell id="DX_jDA4ijIOc0aVRlDkm-3" value="" style="ellipse;shape=doubleEllipse;whiteSpace=wrap;html=1;aspect=fixed;fillColor=#330000;fontColor=#ffffff;strokeColor=#B20000;" vertex="1" parent="WIyWlLk6GJQsqaUBKTNV-1">
          <mxGeometry x="500" y="70" width="20" height="20" as="geometry" />
        </mxCell>
        <mxCell id="DX_jDA4ijIOc0aVRlDkm-4" style="edgeStyle=orthogonalEdgeStyle;rounded=0;orthogonalLoop=1;jettySize=auto;html=1;exitX=0.5;exitY=1;exitDx=0;exitDy=0;entryX=0.5;entryY=0;entryDx=0;entryDy=0;" edge="1" parent="WIyWlLk6GJQsqaUBKTNV-1" source="DX_jDA4ijIOc0aVRlDkm-5" target="DX_jDA4ijIOc0aVRlDkm-7">
          <mxGeometry relative="1" as="geometry" />
        </mxCell>
        <mxCell id="DX_jDA4ijIOc0aVRlDkm-5" value="Считывание всех областей работы" style="rounded=1;whiteSpace=wrap;html=1;fillColor=#FFFFFF;" vertex="1" parent="WIyWlLk6GJQsqaUBKTNV-1">
          <mxGeometry x="140" y="120" width="120" height="50" as="geometry" />
        </mxCell>
        <mxCell id="DX_jDA4ijIOc0aVRlDkm-6" style="edgeStyle=orthogonalEdgeStyle;rounded=0;orthogonalLoop=1;jettySize=auto;html=1;exitX=0.5;exitY=1;exitDx=0;exitDy=0;entryX=0.5;entryY=0;entryDx=0;entryDy=0;" edge="1" parent="WIyWlLk6GJQsqaUBKTNV-1" source="DX_jDA4ijIOc0aVRlDkm-7" target="DX_jDA4ijIOc0aVRlDkm-10">
          <mxGeometry relative="1" as="geometry" />
        </mxCell>
        <mxCell id="DX_jDA4ijIOc0aVRlDkm-7" value="Поиск подходящего &quot;объекта&quot; для бригады" style="rounded=1;whiteSpace=wrap;html=1;fillColor=#FFFFFF;" vertex="1" parent="WIyWlLk6GJQsqaUBKTNV-1">
          <mxGeometry x="130" y="200" width="140" height="40" as="geometry" />
        </mxCell>
        <mxCell id="DX_jDA4ijIOc0aVRlDkm-8" style="edgeStyle=orthogonalEdgeStyle;rounded=0;orthogonalLoop=1;jettySize=auto;html=1;exitX=1;exitY=0.5;exitDx=0;exitDy=0;entryX=1;entryY=0.5;entryDx=0;entryDy=0;" edge="1" parent="WIyWlLk6GJQsqaUBKTNV-1" source="DX_jDA4ijIOc0aVRlDkm-10" target="DX_jDA4ijIOc0aVRlDkm-7">
          <mxGeometry relative="1" as="geometry">
            <Array as="points">
              <mxPoint x="290" y="310" />
              <mxPoint x="290" y="220" />
            </Array>
          </mxGeometry>
        </mxCell>
        <mxCell id="DX_jDA4ijIOc0aVRlDkm-9" style="edgeStyle=orthogonalEdgeStyle;rounded=0;orthogonalLoop=1;jettySize=auto;html=1;exitX=0.5;exitY=1;exitDx=0;exitDy=0;entryX=0.5;entryY=0;entryDx=0;entryDy=0;" edge="1" parent="WIyWlLk6GJQsqaUBKTNV-1" source="DX_jDA4ijIOc0aVRlDkm-10" target="DX_jDA4ijIOc0aVRlDkm-13">
          <mxGeometry relative="1" as="geometry" />
        </mxCell>
        <mxCell id="DX_jDA4ijIOc0aVRlDkm-10" value="&quot;Объект&quot; найден" style="rhombus;whiteSpace=wrap;html=1;fillColor=#FFFFFF;" vertex="1" parent="WIyWlLk6GJQsqaUBKTNV-1">
          <mxGeometry x="160" y="270" width="80" height="80" as="geometry" />
        </mxCell>
        <mxCell id="DX_jDA4ijIOc0aVRlDkm-11" value="Нет" style="text;html=1;strokeColor=none;fillColor=none;align=center;verticalAlign=middle;whiteSpace=wrap;rounded=0;" vertex="1" parent="WIyWlLk6GJQsqaUBKTNV-1">
          <mxGeometry x="230" y="280" width="60" height="30" as="geometry" />
        </mxCell>
        <mxCell id="DX_jDA4ijIOc0aVRlDkm-12" style="edgeStyle=orthogonalEdgeStyle;rounded=0;orthogonalLoop=1;jettySize=auto;html=1;exitX=0.5;exitY=1;exitDx=0;exitDy=0;entryX=0.5;entryY=0;entryDx=0;entryDy=0;" edge="1" parent="WIyWlLk6GJQsqaUBKTNV-1" source="DX_jDA4ijIOc0aVRlDkm-13">
          <mxGeometry relative="1" as="geometry">
            <mxPoint x="200" y="480" as="targetPoint" />
          </mxGeometry>
        </mxCell>
        <mxCell id="DX_jDA4ijIOc0aVRlDkm-13" value="Добавление в список выбора &quot;объекта&quot; для бригадира" style="rounded=1;whiteSpace=wrap;html=1;fillColor=#FFFFFF;" vertex="1" parent="WIyWlLk6GJQsqaUBKTNV-1">
          <mxGeometry x="130" y="390" width="140" height="50" as="geometry" />
        </mxCell>
        <mxCell id="DX_jDA4ijIOc0aVRlDkm-14" value="Да" style="text;html=1;strokeColor=none;fillColor=none;align=center;verticalAlign=middle;whiteSpace=wrap;rounded=0;" vertex="1" parent="WIyWlLk6GJQsqaUBKTNV-1">
          <mxGeometry x="190" y="350" width="60" height="30" as="geometry" />
        </mxCell>
        <mxCell id="DX_jDA4ijIOc0aVRlDkm-15" value="" style="ellipse;shape=doubleEllipse;whiteSpace=wrap;html=1;aspect=fixed;fillColor=#330000;fontColor=#ffffff;strokeColor=#B20000;" vertex="1" parent="WIyWlLk6GJQsqaUBKTNV-1">
          <mxGeometry x="500" y="480" width="20" height="20" as="geometry" />
        </mxCell>
        <mxCell id="DX_jDA4ijIOc0aVRlDkm-16" style="edgeStyle=orthogonalEdgeStyle;rounded=0;orthogonalLoop=1;jettySize=auto;html=1;exitX=0.5;exitY=1;exitDx=0;exitDy=0;entryX=0.5;entryY=0;entryDx=0;entryDy=0;" edge="1" parent="WIyWlLk6GJQsqaUBKTNV-1" source="DX_jDA4ijIOc0aVRlDkm-17" target="DX_jDA4ijIOc0aVRlDkm-19">
          <mxGeometry relative="1" as="geometry" />
        </mxCell>
        <mxCell id="DX_jDA4ijIOc0aVRlDkm-17" value="Считывание явку всех рабочих бригады" style="rounded=1;whiteSpace=wrap;html=1;fillColor=#FFFFFF;" vertex="1" parent="WIyWlLk6GJQsqaUBKTNV-1">
          <mxGeometry x="450" y="120" width="120" height="50" as="geometry" />
        </mxCell>
        <mxCell id="DX_jDA4ijIOc0aVRlDkm-18" style="edgeStyle=orthogonalEdgeStyle;rounded=0;orthogonalLoop=1;jettySize=auto;html=1;exitX=0.5;exitY=1;exitDx=0;exitDy=0;entryX=0.5;entryY=0;entryDx=0;entryDy=0;" edge="1" parent="WIyWlLk6GJQsqaUBKTNV-1" source="DX_jDA4ijIOc0aVRlDkm-19" target="DX_jDA4ijIOc0aVRlDkm-22">
          <mxGeometry relative="1" as="geometry" />
        </mxCell>
        <mxCell id="DX_jDA4ijIOc0aVRlDkm-19" value="Поиск рабочего, отсутствующего на работе&amp;nbsp;" style="rounded=1;whiteSpace=wrap;html=1;fillColor=#FFFFFF;" vertex="1" parent="WIyWlLk6GJQsqaUBKTNV-1">
          <mxGeometry x="420" y="200" width="180" height="40" as="geometry" />
        </mxCell>
        <mxCell id="DX_jDA4ijIOc0aVRlDkm-20" style="edgeStyle=orthogonalEdgeStyle;rounded=0;orthogonalLoop=1;jettySize=auto;html=1;exitX=1;exitY=0.5;exitDx=0;exitDy=0;entryX=1;entryY=0.5;entryDx=0;entryDy=0;" edge="1" parent="WIyWlLk6GJQsqaUBKTNV-1" source="DX_jDA4ijIOc0aVRlDkm-22" target="DX_jDA4ijIOc0aVRlDkm-19">
          <mxGeometry relative="1" as="geometry">
            <Array as="points">
              <mxPoint x="620" y="310" />
              <mxPoint x="620" y="220" />
            </Array>
          </mxGeometry>
        </mxCell>
        <mxCell id="DX_jDA4ijIOc0aVRlDkm-21" style="edgeStyle=orthogonalEdgeStyle;rounded=0;orthogonalLoop=1;jettySize=auto;html=1;exitX=0.5;exitY=1;exitDx=0;exitDy=0;entryX=0.5;entryY=0;entryDx=0;entryDy=0;" edge="1" parent="WIyWlLk6GJQsqaUBKTNV-1" source="DX_jDA4ijIOc0aVRlDkm-22" target="DX_jDA4ijIOc0aVRlDkm-25">
          <mxGeometry relative="1" as="geometry" />
        </mxCell>
        <mxCell id="DX_jDA4ijIOc0aVRlDkm-22" value="Рабочий найден" style="rhombus;whiteSpace=wrap;html=1;fillColor=#FFFFFF;" vertex="1" parent="WIyWlLk6GJQsqaUBKTNV-1">
          <mxGeometry x="470" y="270" width="80" height="80" as="geometry" />
        </mxCell>
        <mxCell id="DX_jDA4ijIOc0aVRlDkm-23" value="Нет" style="text;html=1;strokeColor=none;fillColor=none;align=center;verticalAlign=middle;whiteSpace=wrap;rounded=0;" vertex="1" parent="WIyWlLk6GJQsqaUBKTNV-1">
          <mxGeometry x="540" y="280" width="60" height="30" as="geometry" />
        </mxCell>
        <mxCell id="DX_jDA4ijIOc0aVRlDkm-24" style="edgeStyle=orthogonalEdgeStyle;rounded=0;orthogonalLoop=1;jettySize=auto;html=1;exitX=0.5;exitY=1;exitDx=0;exitDy=0;entryX=0.5;entryY=0;entryDx=0;entryDy=0;" edge="1" parent="WIyWlLk6GJQsqaUBKTNV-1" source="DX_jDA4ijIOc0aVRlDkm-25">
          <mxGeometry relative="1" as="geometry">
            <mxPoint x="510" y="480" as="targetPoint" />
          </mxGeometry>
        </mxCell>
        <mxCell id="DX_jDA4ijIOc0aVRlDkm-25" value="Запросить запрос на заполнение причины неявки рабочего" style="rounded=1;whiteSpace=wrap;html=1;fillColor=#FFFFFF;" vertex="1" parent="WIyWlLk6GJQsqaUBKTNV-1">
          <mxGeometry x="450" y="390" width="120" height="50" as="geometry" />
        </mxCell>
        <mxCell id="DX_jDA4ijIOc0aVRlDkm-26" value="" style="ellipse;shape=doubleEllipse;whiteSpace=wrap;html=1;aspect=fixed;fillColor=#330000;fontColor=#ffffff;strokeColor=#B20000;" vertex="1" parent="WIyWlLk6GJQsqaUBKTNV-1">
          <mxGeometry x="190" y="480" width="20" height="20" as="geometry" />
        </mxCell>
        <mxCell id="DX_jDA4ijIOc0aVRlDkm-27" value="Да" style="text;html=1;strokeColor=none;fillColor=none;align=center;verticalAlign=middle;whiteSpace=wrap;rounded=0;" vertex="1" parent="WIyWlLk6GJQsqaUBKTNV-1">
          <mxGeometry x="500" y="350" width="60" height="30" as="geometry" />
        </mxCell>
      </root>
    </mxGraphModel>
  </diagram>
</mxfile>
